<?xml version="1.0" encoding="UTF-8" standalone="no"?>
<svg
   xmlns:dc="http://purl.org/dc/elements/1.1/"
   xmlns:cc="http://creativecommons.org/ns#"
   xmlns:rdf="http://www.w3.org/1999/02/22-rdf-syntax-ns#"
   xmlns:svg="http://www.w3.org/2000/svg"
   xmlns="http://www.w3.org/2000/svg"
   width="454"
   height="560"
   viewBox="0 0 120.12084 148.16667"
   version="1.1"
   id="svg8">
  <defs
     id="defs2" />
  <metadata
     id="metadata5">
    <rdf:RDF>
      <cc:Work
         rdf:about="">
        <dc:format>image/svg+xml</dc:format>
        <dc:type
           rdf:resource="http://purl.org/dc/dcmitype/StillImage" />
        <dc:title></dc:title>
      </cc:Work>
    </rdf:RDF>
  </metadata>
  <g
     id="layer1"
     transform="translate(-135.60336,-1.1055107)">
    <path
       style="fill:none;stroke:#ffffff;stroke-width:1.61422;stroke-linecap:round;stroke-linejoin:round;stroke-miterlimit:4;stroke-dasharray:none;stroke-opacity:1"
       d="m 227.20458,106.46868 -3.65138,-0.53328 12.50276,-9.524014"
       id="path1018" />
    <path
       style="fill:none;fill-opacity:1;stroke:#ffffff;stroke-width:1.61424;stroke-linecap:round;stroke-linejoin:round;stroke-miterlimit:4;stroke-dasharray:none;stroke-opacity:1"
       d="m 160.29171,19.842799 c 1.51631,0.89743 2.25376,2.750463 1.79444,4.509083 -0.45928,1.758627 -1.99956,2.979493 -3.748,2.970805 -1.10976,-0.0055 -2.16046,-0.509793 -2.88155,-1.384003 -2.50115,-3.030905 -5.00229,-6.061819 -7.50344,-9.092724 l -1.68864,7.698552"
       id="path1020" />
    <path
       id="path1022"
       style="font-variation-settings:normal;opacity:1;vector-effect:none;fill:none;fill-opacity:1;stroke:#ffffff;stroke-width:1.61422;stroke-linecap:round;stroke-linejoin:round;stroke-miterlimit:4;stroke-dasharray:none;stroke-dashoffset:0;stroke-opacity:1;stop-color:#000000;stop-opacity:1"
       d="m 178.68826,95.176534 c -2.02531,-0.66694 -4.23101,0.390676 -4.9196,2.443922 -0.68131,2.031539 0.40757,4.277384 2.39977,4.953484 1.54182,0.52325 3.28823,0.0332 4.33194,-1.29561 -1.00014,1.35741 -1.13029,3.19722 -0.16869,4.58728 1.22658,1.773 3.56485,2.24935 5.35201,1.08146 1.7871,-1.16788 2.29102,-3.516 1.17115,-5.33563" />
    <path
       id="path1024"
       style="font-variation-settings:normal;opacity:1;vector-effect:none;fill:none;fill-opacity:1;stroke:#ffffff;stroke-width:1.61423;stroke-linecap:round;stroke-linejoin:round;stroke-miterlimit:4;stroke-dasharray:none;stroke-dashoffset:0;stroke-opacity:1;stop-color:#000000;stop-opacity:1"
       d="m 211.94175,47.050552 4.97968,4.113707 m -12.76999,-8.882016 5.3737,12.921186 5.81583,-7.225872" />
    <path
       id="path1026"
       style="font-variation-settings:normal;opacity:1;vector-effect:none;fill:none;fill-opacity:1;stroke:#ffffff;stroke-width:1.61423;stroke-linecap:round;stroke-linejoin:round;stroke-miterlimit:4;stroke-dasharray:none;stroke-dashoffset:0;stroke-opacity:1;stop-color:#000000;stop-opacity:1"
       d="m 167.52442,125.57474 c -1.14705,1.10471 -1.74751,2.54617 -1.50048,3.98763 0.44749,2.61107 3.08113,3.75196 5.21817,3.36016 v 0 c 2.90613,-0.53283 3.91578,-3.29273 3.62633,-4.98174 -0.25254,-1.47356 -1.17785,-2.62408 -2.04785,-3.35886 l 7.74613,-1.4202 1.33775,7.80591" />
    <path
       id="path1030"
       style="font-variation-settings:normal;opacity:1;vector-effect:none;fill:none;fill-opacity:1;stroke:#ffffff;stroke-width:1.61422;stroke-linecap:round;stroke-linejoin:round;stroke-miterlimit:4;stroke-dasharray:none;stroke-dashoffset:0;stroke-opacity:1;stop-color:#000000;stop-opacity:1"
       d="m 227.81745,23.202355 -1.28507,-6.25822 m -7.85397,9.824921 c -4.68587,0.393528 -5.77434,-8.055753 -0.70034,-9.177613 4.11697,-0.910262 5.13205,1.924731 5.43061,3.378807 0.67168,3.270974 -2.3793,5.404011 -6.49628,6.314273 -4.11695,0.910257 -7.94815,-0.756361 -8.41253,-3.017927 -0.2646,-1.288524 -0.33835,-2.656365 0.88408,-3.756639" />
    <path
       style="font-variation-settings:normal;opacity:1;vector-effect:none;fill:none;fill-opacity:1;stroke:#ffffff;stroke-width:1.61423;stroke-linecap:round;stroke-linejoin:round;stroke-miterlimit:4;stroke-dasharray:none;stroke-dashoffset:0;stroke-opacity:1;stop-color:#000000;stop-opacity:1"
       d="m 209.49099,94.504431 v 2.574124 h -7.89797 l 5.18083,-15.426981"
       id="path1032" />
    <path
       id="path1034"
       style="font-variation-settings:normal;opacity:1;vector-effect:none;fill:none;fill-opacity:1;stroke:#ffffff;stroke-width:1.61423;stroke-linecap:round;stroke-linejoin:round;stroke-miterlimit:4;stroke-dasharray:none;stroke-dashoffset:0;stroke-opacity:1;stop-color:#000000;stop-opacity:1"
       d="m 161.6763,54.245968 c -1.98795,1.52953 -4.83117,1.147131 -6.35052,-0.85412 -1.51938,-2.00124 -1.13951,-4.863505 0.84844,-6.393035 1.98795,-1.529533 4.80101,-1.123913 6.32038,0.877327 1.51935,2.001251 1.16967,4.840296 -0.8183,6.369828 z m 5.36936,-5.757471 c -1.42475,1.096205 -3.46247,0.822148 -4.55136,-0.612128 -1.08892,-1.434274 -0.81668,-3.485642 0.60806,-4.581832 1.42473,-1.096199 3.46245,-0.822121 4.55138,0.612152 1.08891,1.434264 0.81663,3.485624 -0.60808,4.581808 z" />
    <path
       id="path1038"
       style="font-variation-settings:normal;opacity:1;vector-effect:none;fill:none;fill-opacity:1;stroke:#ffffff;stroke-width:1.61422;stroke-linecap:round;stroke-linejoin:round;stroke-miterlimit:4;stroke-dasharray:none;stroke-dashoffset:0;stroke-opacity:1;stop-color:#000000;stop-opacity:1"
       d="m 246.76443,132.68124 0.95567,-6.35868 m -12.95419,-3.50237 c 4.51238,1.37857 2.61827,9.72228 -2.50758,8.88315 -4.15903,-0.68085 -4.1305,-3.72285 -3.90845,-5.2003 0.49949,-3.32346 4.0841,-4.18906 8.24311,-3.5082 4.15903,0.68087 7.16341,3.67592 6.81804,5.97378 -0.19676,1.30921 -0.59909,2.62179 -2.11995,3.19931" />
    <path
       id="path1040"
       style="font-variation-settings:normal;opacity:1;vector-effect:none;fill:none;fill-opacity:1;stroke:#ffffff;stroke-width:1.61422;stroke-linecap:round;stroke-linejoin:round;stroke-miterlimit:4;stroke-dasharray:none;stroke-dashoffset:0;stroke-opacity:1;stop-color:#000000;stop-opacity:1"
       d="m 190.44122,61.212303 a 4.8105874,7.7092826 0 0 1 -4.81059,7.709288 4.8105874,7.7092826 0 0 1 -4.81057,-7.709288 4.8105874,7.7092826 0 0 1 4.81057,-7.709277 4.8105874,7.7092826 0 0 1 4.81059,7.709277 z" />
  </g>
</svg>
