<?xml version="1.0" encoding="UTF-8" standalone="no"?>
<svg
   xmlns:dc="http://purl.org/dc/elements/1.1/"
   xmlns:cc="http://creativecommons.org/ns#"
   xmlns:rdf="http://www.w3.org/1999/02/22-rdf-syntax-ns#"
   xmlns:svg="http://www.w3.org/2000/svg"
   xmlns="http://www.w3.org/2000/svg"
   width="454"
   height="560"
   viewBox="0 0 120.12084 148.16667"
   version="1.1"
   id="svg8">
  <defs
     id="defs2" />
  <metadata
     id="metadata5">
    <rdf:RDF>
      <cc:Work
         rdf:about="">
        <dc:format>image/svg+xml</dc:format>
        <dc:type
           rdf:resource="http://purl.org/dc/dcmitype/StillImage" />
        <dc:title></dc:title>
      </cc:Work>
    </rdf:RDF>
  </metadata>
  <g
     id="layer1"
     transform="translate(-119.29347,-130.72369)">
    <path
       id="path1048"
       style="font-variation-settings:normal;opacity:1;vector-effect:none;fill:none;fill-opacity:1;stroke:#ffffff;stroke-width:1.61423;stroke-linecap:round;stroke-linejoin:round;stroke-miterlimit:4;stroke-dasharray:none;stroke-dashoffset:0;stroke-opacity:1;stop-color:#000000;stop-opacity:1"
       d="m 205.56975,237.60254 a 5.8738522,3.4418106 52.521889 0 1 -0.84717,-6.75745 5.8738522,3.4418106 52.521889 0 1 6.30476,2.56235 5.8738522,3.4418106 52.521889 0 1 0.84716,6.75745 5.8738522,3.4418106 52.521889 0 1 -6.30475,-2.56235 z m 15.88085,-5.76583 -0.47062,3.58824 -9.32688,-12.15401" />
    <path
       id="path1052"
       style="font-variation-settings:normal;opacity:1;vector-effect:none;fill:none;fill-opacity:1;stroke:#ffffff;stroke-width:1.61422;stroke-linecap:round;stroke-linejoin:round;stroke-miterlimit:4;stroke-dasharray:none;stroke-dashoffset:0;stroke-opacity:1;stop-color:#000000;stop-opacity:1"
       d="m 149.43949,153.99474 a 3.4153173,5.9006094 9.0751982 0 1 -4.31218,5.26474 3.4153173,5.9006094 9.0751982 0 1 -2.42609,-6.38479 3.4153173,5.9006094 9.0751982 0 1 4.31218,-5.26469 3.4153173,5.9006094 9.0751982 0 1 2.42609,6.38474 z m -18.83648,-8.18172 c 0.771,-1.56584 2.50305,-2.40904 4.21471,-2.05179 1.71167,0.35723 2.97143,1.8249 3.06543,3.57127 0.0594,1.10849 -0.36193,2.18672 -1.15723,2.95716 -2.75724,2.67223 -5.51451,5.34445 -8.27176,8.0167 l 7.47413,1.24235" />
    <path
       id="path1056"
       style="font-variation-settings:normal;opacity:1;vector-effect:none;fill:none;fill-opacity:1;stroke:#ffffff;stroke-width:1.61422;stroke-linecap:round;stroke-linejoin:round;stroke-miterlimit:4;stroke-dasharray:none;stroke-dashoffset:0;stroke-opacity:1;stop-color:#000000;stop-opacity:1"
       d="m 173.56253,237.80826 a 3.4172052,5.8346541 36.201125 0 1 -6.20221,2.67675 3.4172052,5.8346541 36.201125 0 1 0.7008,-6.73184 3.4172052,5.8346541 36.201125 0 1 6.20219,-2.67674 3.4172052,5.8346541 36.201125 0 1 -0.70078,6.73183 z m -19.18722,-7.84932 c -0.59247,2.00657 0.49869,4.14211 2.51647,4.76078 1.99642,0.61212 4.15194,-0.51933 4.75424,-2.49365 0.46616,-1.52801 -0.0596,-3.22856 -1.38231,-4.21598 1.3492,0.94384 3.1436,1.0203 4.46972,0.0375 1.6914,-1.25339 2.08961,-3.56187 0.90281,-5.2835 -1.18675,-1.72161 -3.48636,-2.15079 -5.22616,-1.0008" />
    <path
       id="path1060"
       style="font-variation-settings:normal;opacity:1;vector-effect:none;fill:none;fill-opacity:1;stroke:#ffffff;stroke-width:1.61423;stroke-linecap:round;stroke-linejoin:round;stroke-miterlimit:4;stroke-dasharray:none;stroke-dashoffset:0;stroke-opacity:1;stop-color:#000000;stop-opacity:1"
       d="m 185.1863,171.8584 a 3.4196175,5.850731 34.044415 0 1 6.1061,-2.89159 3.4196175,5.850731 34.044415 0 1 -0.47977,6.78042 3.4196175,5.850731 34.044415 0 1 -6.10608,2.89156 3.4196175,5.850731 34.044415 0 1 0.47975,-6.78039 z m 11.94683,6.7095 3.57302,-5.24731 m -7.55804,13.31637 12.01935,-6.37435 -7.4058,-5.11876" />
    <path
       id="path1064"
       style="font-variation-settings:normal;opacity:1;vector-effect:none;fill:none;fill-opacity:1;stroke:#ffffff;stroke-width:1.61423;stroke-linecap:round;stroke-linejoin:round;stroke-miterlimit:4;stroke-dasharray:none;stroke-dashoffset:0;stroke-opacity:1;stop-color:#000000;stop-opacity:1"
       d="m 169.18024,255.21466 a 5.8977861,3.4127895 79.617294 0 1 -2.27486,6.43866 5.8977861,3.4127895 79.617294 0 1 -4.4297,-5.15838 5.8977861,3.4127895 79.617294 0 1 2.27486,-6.43863 5.8977861,3.4127895 79.617294 0 1 4.4297,5.15835 z m -18.978,9.26578 c 1.06551,1.13536 2.44633,1.72074 3.81816,1.45878 2.48495,-0.47451 3.54489,-3.11951 3.14864,-5.25209 v 0 c -0.53885,-2.90004 -3.18116,-3.88083 -4.78859,-3.57389 -1.40238,0.26781 -2.48962,1.20488 -3.18101,2.08236 l -1.4363,-7.72989 7.42888,-1.41859" />
    <path
       id="path1068"
       style="font-variation-settings:normal;opacity:1;vector-effect:none;fill:none;fill-opacity:1;stroke:#ffffff;stroke-width:1.61424;stroke-linecap:round;stroke-linejoin:round;stroke-miterlimit:4;stroke-dasharray:none;stroke-dashoffset:0;stroke-opacity:1;stop-color:#000000;stop-opacity:1"
       d="m 189.79361,154.38916 a 5.8979469,3.4137299 79.871167 0 1 2.30515,-6.42781 5.8979469,3.4137299 79.871167 0 1 4.40729,5.17921 5.8979469,3.4137299 79.871167 0 1 -2.30514,6.42781 5.8979469,3.4137299 79.871167 0 1 -4.4073,-5.17921 z m 20.64659,-5.71959 c 0.24509,4.73944 -7.89357,5.60434 -8.82653,0.45316 -0.75699,-4.17964 1.99216,-5.12563 3.39593,-5.38674 3.15777,-0.58739 5.11828,2.55035 5.87527,6.72999 0.75697,4.17963 -0.95069,7.99971 -3.13401,8.40583 -1.24392,0.23145 -2.55857,0.26799 -3.57979,-0.99597" />
    <path
       id="path1072"
       style="font-variation-settings:normal;opacity:1;vector-effect:none;fill:none;fill-opacity:1;stroke:#ffffff;stroke-width:1.61424;stroke-linecap:round;stroke-linejoin:round;stroke-miterlimit:4;stroke-dasharray:none;stroke-dashoffset:0;stroke-opacity:1;stop-color:#000000;stop-opacity:1"
       d="m 189.08072,230.1625 a 5.9117384,3.4244508 0 0 1 -5.91174,-3.42445 5.9117384,3.4244508 0 0 1 5.91174,-3.42445 5.9117384,3.4244508 0 0 1 5.91174,3.42445 5.9117384,3.4244508 0 0 1 -5.91174,3.42445 z m 5.1438,-19.60755 h 2.57413 v 7.39529 l -15.42699,-4.85108" />
    <path
       id="path1076"
       style="font-variation-settings:normal;opacity:1;vector-effect:none;fill:none;fill-opacity:1;stroke:#ffffff;stroke-width:1.61422;stroke-linecap:round;stroke-linejoin:round;stroke-miterlimit:4;stroke-dasharray:none;stroke-dashoffset:0;stroke-opacity:1;stop-color:#000000;stop-opacity:1"
       d="m 153.73322,170.90119 a 5.8312005,3.4164513 52.050217 0 1 0.89923,6.70211 5.8312005,3.4164513 52.050217 0 1 -6.27903,-2.48945 5.8312005,3.4164513 52.050217 0 1 -0.89923,-6.70208 5.8312005,3.4164513 52.050217 0 1 6.27903,2.48942 z m -7.7797,10.11288 c 1.51056,1.93424 1.16921,4.72842 -0.76243,6.24101 -1.93164,1.51258 -4.7221,1.17076 -6.23268,-0.76348 -1.51056,-1.93422 -1.14628,-4.69906 0.78536,-6.21164 1.93164,-1.51259 4.69918,-1.20012 6.20975,0.73411 z m -5.66311,-5.20668 c 1.0826,1.38625 0.83797,3.38881 -0.54641,4.47286 -1.38441,1.08406 -3.38431,0.83908 -4.46692,-0.54716 -1.08259,-1.38622 -0.83795,-3.38879 0.54645,-4.47286 1.38438,-1.08404 3.38428,-0.83907 4.46688,0.54716 z" />
    <path
       id="path1080"
       style="font-variation-settings:normal;opacity:1;vector-effect:none;fill:none;fill-opacity:1;stroke:#ffffff;stroke-width:1.61423;stroke-linecap:round;stroke-linejoin:round;stroke-miterlimit:4;stroke-dasharray:none;stroke-dashoffset:0;stroke-opacity:1;stop-color:#000000;stop-opacity:1"
       d="m 209.54857,254.93975 a 3.4118839,5.8940031 10.713214 0 1 4.45781,-5.12907 3.4118839,5.8940031 10.713214 0 1 2.23741,6.44787 3.4118839,5.8940031 10.713214 0 1 -4.45782,5.12905 3.4118839,5.8940031 10.713214 0 1 -2.2374,-6.44785 z m 12.41904,4.32781 c 1.47738,-4.50048 9.36163,-2.29764 8.3762,2.84026 -0.79957,4.16883 -3.69803,4.0331 -5.09821,3.75729 -3.14969,-0.6204 -3.84491,-4.26451 -3.04536,-8.43331 0.79957,-4.1688 3.76311,-7.09223 5.94083,-6.66327 1.24074,0.24438 2.47725,0.69614 2.97266,2.24962" />
    <path
       id="path1084"
       style="font-variation-settings:normal;opacity:1;vector-effect:none;fill:none;fill-opacity:1;stroke:#ffffff;stroke-width:1.61423;stroke-linecap:round;stroke-linejoin:round;stroke-miterlimit:4;stroke-dasharray:none;stroke-dashoffset:0;stroke-opacity:1;stop-color:#000000;stop-opacity:1"
       d="m 169.36935,179.03054 a 5.9119166,3.4114182 0 0 1 5.91193,3.41142 5.9119166,3.4114182 0 0 1 -5.91193,3.41141 5.9119166,3.4114182 0 0 1 -5.91191,-3.41141 5.9119166,3.4114182 0 0 1 5.91191,-3.41142 z m 0,12.36537 a 7.7092826,4.5787339 0 0 1 7.7093,4.57874 7.7092826,4.5787339 0 0 1 -7.7093,4.57872 7.7092826,4.5787339 0 0 1 -7.70927,-4.57872 7.7092826,4.5787339 0 0 1 7.70927,-4.57874 z" />
  </g>
</svg>
