<?xml version="1.0" encoding="UTF-8" standalone="no"?>
<svg
   xmlns:dc="http://purl.org/dc/elements/1.1/"
   xmlns:cc="http://creativecommons.org/ns#"
   xmlns:rdf="http://www.w3.org/1999/02/22-rdf-syntax-ns#"
   xmlns:svg="http://www.w3.org/2000/svg"
   xmlns="http://www.w3.org/2000/svg"
   width="475"
   height="460"
   viewBox="0 0 125.67708 121.70834"
   version="1.1"
   id="svg8">
  <defs
     id="defs2" />
  <metadata
     id="metadata5">
    <rdf:RDF>
      <cc:Work
         rdf:about="">
        <dc:format>image/svg+xml</dc:format>
        <dc:type
           rdf:resource="http://purl.org/dc/dcmitype/StillImage" />
        <dc:title></dc:title>
      </cc:Work>
    </rdf:RDF>
  </metadata>
  <g
     id="layer1"
     transform="translate(-242.44221,-132.55914)">
    <path
       id="path1136"
       style="font-variation-settings:normal;opacity:1;vector-effect:none;fill:none;fill-opacity:1;stroke:#ffffff;stroke-width:1.61423;stroke-linecap:round;stroke-linejoin:round;stroke-miterlimit:4;stroke-dasharray:none;stroke-dashoffset:0;stroke-opacity:1;stop-color:#000000;stop-opacity:1"
       d="m 344.35584,246.03943 a 2.9380195,4.8704834 70.833851 0 1 -5.5651,-1.17614 2.9380195,4.8704834 70.833851 0 1 3.63595,-4.37418 2.9380195,4.8704834 70.833851 0 1 5.56509,1.17613 2.9380195,4.8704834 70.833851 0 1 -3.63594,4.37419 z m -0.45581,-11.20248 2.07051,1.0026 -9.20161,3.19824" />
    <path
       style="fill:none;stroke:#ffffff;stroke-width:1.61422;stroke-linecap:round;stroke-linejoin:round;stroke-miterlimit:4;stroke-dasharray:none;stroke-opacity:1"
       d="m 298.81237,206.67499 1.62679,-1.62658 v 9.74158"
       id="path1096" />
    <path
       style="fill:none;fill-opacity:1;stroke:#ffffff;stroke-width:1.61423;stroke-linecap:round;stroke-linejoin:round;stroke-miterlimit:4;stroke-dasharray:none;stroke-opacity:1"
       d="m 318.80178,191.62641 c -0.32741,1.05776 -1.3369,1.76405 -2.45645,1.71863 -1.11955,-0.0454 -2.06693,-0.83109 -2.3053,-1.91181 -0.15129,-0.68596 0.005,-1.40299 0.42926,-1.96661 1.47076,-1.95478 2.94153,-3.90956 4.41229,-5.86434 h -4.85609"
       id="path1098" />
    <path
       id="path1100"
       style="font-variation-settings:normal;opacity:1;vector-effect:none;fill:none;fill-opacity:1;stroke:#ffffff;stroke-width:1.61423;stroke-linecap:round;stroke-linejoin:round;stroke-miterlimit:4;stroke-dasharray:none;stroke-dashoffset:0;stroke-opacity:1;stop-color:#000000;stop-opacity:1"
       d="m 286.711,184.97276 c -0.45436,-1.25898 -1.82715,-1.94496 -3.10372,-1.49736 -1.26306,0.44286 -1.94759,1.84457 -1.51052,3.09067 0.33826,0.96441 1.25421,1.64097 2.31151,1.6474 -1.05449,0.0261 -2.01023,0.66824 -2.32275,1.67829 -0.39861,1.28827 0.27048,2.62903 1.53582,3.0654 1.26531,0.43636 2.61564,-0.21592 3.07843,-1.46928" />
    <path
       id="path1102"
       style="font-variation-settings:normal;opacity:1;vector-effect:none;fill:none;fill-opacity:1;stroke:#ffffff;stroke-width:1.61423;stroke-linecap:round;stroke-linejoin:round;stroke-miterlimit:4;stroke-dasharray:none;stroke-dashoffset:0;stroke-opacity:1;stop-color:#000000;stop-opacity:1"
       d="m 326.88695,220.05338 -2.44446,3.23241 m 5.23598,-8.24777 -7.89137,3.69918 4.5963,3.4759" />
    <path
       id="path1104"
       style="font-variation-settings:normal;opacity:1;vector-effect:none;fill:none;fill-opacity:1;stroke:#ffffff;stroke-width:1.61423;stroke-linecap:round;stroke-linejoin:round;stroke-miterlimit:4;stroke-dasharray:none;stroke-dashoffset:0;stroke-opacity:1;stop-color:#000000;stop-opacity:1"
       d="m 274.78427,223.25832 c 0.92037,0.37001 1.88031,0.33931 2.61237,-0.17696 1.32603,-0.93519 1.24984,-2.74074 0.45816,-3.86329 v 0 c -1.0766,-1.52655 -2.87689,-1.38754 -3.73466,-0.7826 -0.74836,0.52778 -1.13686,1.35703 -1.30994,2.04652 l -2.86959,-4.06891 3.96426,-2.79578" />
    <path
       id="path1108"
       style="font-variation-settings:normal;opacity:1;vector-effect:none;fill:none;fill-opacity:1;stroke:#ffffff;stroke-width:1.61422;stroke-linecap:round;stroke-linejoin:round;stroke-miterlimit:4;stroke-dasharray:none;stroke-dashoffset:0;stroke-opacity:1;stop-color:#000000;stop-opacity:1"
       d="m 302.09638,230.44446 h -3.94049 m 4.87169,6.16958 c -0.38699,2.97913 -5.62099,2.57508 -5.62099,-0.74011 0,-2.6899 1.84271,-2.96049 2.75827,-2.96049 2.05957,0 2.93801,2.18059 2.93801,4.87049 0,2.68989 -1.51401,4.87048 -2.93801,4.87048 -0.81132,0 -1.645,-0.12944 -2.14491,-1.03466" />
    <path
       style="font-variation-settings:normal;opacity:1;vector-effect:none;fill:none;fill-opacity:1;stroke:#ffffff;stroke-width:1.61423;stroke-linecap:round;stroke-linejoin:round;stroke-miterlimit:4;stroke-dasharray:none;stroke-dashoffset:0;stroke-opacity:1;stop-color:#000000;stop-opacity:1"
       d="m 324.77544,160.40427 -1.50519,0.61583 -1.79009,-4.37521 10.19499,-0.82077"
       id="path1110" />
    <path
       id="path1112"
       style="font-variation-settings:normal;opacity:1;vector-effect:none;fill:none;fill-opacity:1;stroke:#ffffff;stroke-width:1.61423;stroke-linecap:round;stroke-linejoin:round;stroke-miterlimit:4;stroke-dasharray:none;stroke-dashoffset:0;stroke-opacity:1;stop-color:#000000;stop-opacity:1"
       d="m 338.87626,180.10512 c -0.97661,-1.23179 -0.76974,-3.02202 0.46203,-3.99861 1.23178,-0.97659 3.02201,-0.76973 3.99861,0.46206 0.97659,1.23176 0.75491,3.00331 -0.47687,3.9799 -1.23177,0.9766 -3.00719,0.78842 -3.98377,-0.44335 z m 3.6525,3.30893 c -0.69992,-0.88281 -0.55167,-2.16585 0.33112,-2.86576 0.88281,-0.69993 2.16586,-0.55166 2.86577,0.33114 0.69991,0.88279 0.55165,2.16584 -0.33115,2.86576 -0.8828,0.69991 -2.16584,0.55164 -2.86574,-0.33114 z" />
    <path
       id="path1116"
       style="font-variation-settings:normal;opacity:1;vector-effect:none;fill:none;fill-opacity:1;stroke:#ffffff;stroke-width:1.61422;stroke-linecap:round;stroke-linejoin:round;stroke-miterlimit:4;stroke-dasharray:none;stroke-dashoffset:0;stroke-opacity:1;stop-color:#000000;stop-opacity:1"
       d="m 264.13205,175.33645 -3.23666,-2.24755 m -5.53993,6.51279 c 2.01709,-2.22628 6.08577,1.09094 4.19486,3.81399 -1.53425,2.20945 -3.20214,1.38068 -3.95418,0.85846 -1.6917,-1.17473 -1.16949,-3.46687 0.36477,-5.67631 1.53425,-2.20943 4.02158,-3.13699 5.19123,-2.32478 0.6664,0.46276 1.27736,1.0446 1.17165,2.07326" />
    <path
       id="path1122"
       style="fill:none;fill-opacity:1;stroke:#ffffff;stroke-width:1.61423;stroke-linecap:round;stroke-linejoin:round;stroke-miterlimit:4;stroke-dasharray:none;stroke-opacity:1"
       d="m 355.1946,147.90623 c 1.1071,-0.0198 2.09324,0.7194 2.39958,1.79718 0.30636,1.07777 -0.14432,2.22308 -1.09662,2.78691 -0.60445,0.35787 -1.33444,0.43322 -2.00233,0.20611 -2.31623,-0.78704 -4.63244,-1.57407 -6.94867,-2.36112 l 1.51593,4.61342 m 4.70469,-11.68627 2.05313,1.03773 -9.25475,3.04104" />
    <path
       id="path1129"
       style="fill:none;stroke:#ffffff;stroke-width:1.61422;stroke-linecap:round;stroke-linejoin:round;stroke-miterlimit:4;stroke-dasharray:none;stroke-opacity:1"
       d="m 255.66901,238.81401 -1.03936,-2.0523 9.25758,3.03244 m -9.73357,3.64602 -1.03937,-2.0523 9.25758,3.03243" />
  </g>
</svg>
