<?xml version="1.0" encoding="UTF-8" standalone="no"?>
<svg
   xmlns:dc="http://purl.org/dc/elements/1.1/"
   xmlns:cc="http://creativecommons.org/ns#"
   xmlns:rdf="http://www.w3.org/1999/02/22-rdf-syntax-ns#"
   xmlns:svg="http://www.w3.org/2000/svg"
   xmlns="http://www.w3.org/2000/svg"
   width="568"
   height="615"
   viewBox="0 0 150.28333 162.71876"
   version="1.1"
   id="svg8">
  <defs
     id="defs2" />
  <metadata
     id="metadata5">
    <rdf:RDF>
      <cc:Work
         rdf:about="">
        <dc:format>image/svg+xml</dc:format>
        <dc:type
           rdf:resource="http://purl.org/dc/dcmitype/StillImage" />
        <dc:title></dc:title>
      </cc:Work>
    </rdf:RDF>
  </metadata>
  <g
     id="layer1"
     transform="translate(-360.70526,-91.548744)">
    <path
       style="fill:none;stroke:#ffffff;stroke-width:1.61422;stroke-linecap:round;stroke-linejoin:round;stroke-miterlimit:4;stroke-dasharray:none;stroke-opacity:1"
       d="m 434.9938,174.40048 0.97858,-1.24736 v 7.47044"
       id="path1141" />
    <path
       style="fill:none;fill-opacity:1;stroke:#ffffff;stroke-width:1.61423;stroke-linecap:round;stroke-linejoin:round;stroke-miterlimit:4;stroke-dasharray:none;stroke-opacity:1"
       d="m 396.61767,239.99647 c 0.24035,-0.81117 0.98141,-1.3528 1.80327,-1.31797 0.82186,0.0348 1.51733,0.63734 1.69232,1.46611 0.11106,0.52604 -0.004,1.07591 -0.31512,1.50814 -1.07968,1.49906 -2.15937,2.99812 -3.23905,4.49719 h 3.56484"
       id="path1143" />
    <path
       id="path1145"
       style="font-variation-settings:normal;opacity:1;vector-effect:none;fill:none;fill-opacity:1;stroke:#ffffff;stroke-width:1.61423;stroke-linecap:round;stroke-linejoin:round;stroke-miterlimit:4;stroke-dasharray:none;stroke-dashoffset:0;stroke-opacity:1;stop-color:#000000;stop-opacity:1"
       d="m 453.02965,148.149 c 0.33257,0.96566 1.33739,1.49182 2.27178,1.1485 0.92451,-0.33968 1.42556,-1.41482 1.10564,-2.3706 -0.24759,-0.73972 -0.91803,-1.25865 -1.69193,-1.26358 0.77185,-0.02 1.47141,-0.51255 1.70016,-1.28728 0.29176,-0.98813 -0.19798,-2.01651 -1.12416,-2.35122 -0.92615,-0.33469 -1.91453,0.16562 -2.25327,1.12697" />
    <path
       id="path1147"
       style="font-variation-settings:normal;opacity:1;vector-effect:none;fill:none;fill-opacity:1;stroke:#ffffff;stroke-width:1.61423;stroke-linecap:round;stroke-linejoin:round;stroke-miterlimit:4;stroke-dasharray:none;stroke-dashoffset:0;stroke-opacity:1;stop-color:#000000;stop-opacity:1"
       d="m 455.23542,231.80476 2.67944,1.53234 m -6.74239,-3.15851 3.5469,5.57621 2.19973,-3.77397" />
    <path
       id="path1149"
       style="font-variation-settings:normal;opacity:1;vector-effect:none;fill:none;fill-opacity:1;stroke:#ffffff;stroke-width:1.61423;stroke-linecap:round;stroke-linejoin:round;stroke-miterlimit:4;stroke-dasharray:none;stroke-dashoffset:0;stroke-opacity:1;stop-color:#000000;stop-opacity:1"
       d="m 420.01567,211.71629 c 0.34696,-0.67102 0.3902,-1.39953 0.0462,-1.989 -0.62303,-1.06776 -2.00918,-1.13428 -2.92272,-0.61241 v 0 c -1.24231,0.70969 -1.26114,2.08157 -0.85811,2.77227 0.35161,0.60259 0.9588,0.95362 1.47409,1.13201 l -3.3113,1.89163 -1.86261,-3.19213" />
    <path
       id="path1153"
       style="font-variation-settings:normal;opacity:1;vector-effect:none;fill:none;fill-opacity:1;stroke:#ffffff;stroke-width:1.61422;stroke-linecap:round;stroke-linejoin:round;stroke-miterlimit:4;stroke-dasharray:none;stroke-dashoffset:0;stroke-opacity:1;stop-color:#000000;stop-opacity:1"
       d="m 495.35238,170.93732 1.52193,-2.60924 m -6.00885,0.86722 c -1.84348,-1.39516 0.44834,-4.70644 2.6661,-3.43904 1.79947,1.02834 1.26878,2.35195 0.91516,2.9582 -0.79547,1.36376 -2.5935,1.11179 -4.39296,0.0834 -1.79946,-1.02834 -2.67346,-2.86449 -2.12346,-3.8074 0.31335,-0.53723 0.72194,-1.03977 1.52058,-1.02473" />
    <path
       style="font-variation-settings:normal;opacity:1;vector-effect:none;fill:none;fill-opacity:1;stroke:#ffffff;stroke-width:1.61423;stroke-linecap:round;stroke-linejoin:round;stroke-miterlimit:4;stroke-dasharray:none;stroke-dashoffset:0;stroke-opacity:1;stop-color:#000000;stop-opacity:1"
       d="m 413.46407,167.39203 -1.0776,-0.61579 1.80844,-3.10028 5.27188,5.72418"
       id="path1155" />
    <path
       id="path1157"
       style="font-variation-settings:normal;opacity:1;vector-effect:none;fill:none;fill-opacity:1;stroke:#ffffff;stroke-width:1.61423;stroke-linecap:round;stroke-linejoin:round;stroke-miterlimit:4;stroke-dasharray:none;stroke-dashoffset:0;stroke-opacity:1;stop-color:#000000;stop-opacity:1"
       d="m 473.32776,110.9787 c 1.041,-0.59427 2.37211,-0.2416 2.97312,0.78769 0.60102,1.02929 0.24435,2.34545 -0.79665,2.93972 -1.04099,0.59426 -2.35631,0.23258 -2.95732,-0.79671 -0.60102,-1.02929 -0.26014,-2.33644 0.78085,-2.9307 z m -2.91149,2.36608 c 0.74606,-0.4259 1.70006,-0.17316 2.1308,0.56453 0.43074,0.73769 0.17512,1.68097 -0.57095,2.10688 -0.74606,0.4259 -1.70006,0.17314 -2.1308,-0.56454 -0.43074,-0.73769 -0.17511,-1.68097 0.57095,-2.10687 z" />
    <path
       id="path1161"
       style="font-variation-settings:normal;opacity:1;vector-effect:none;fill:none;fill-opacity:1;stroke:#ffffff;stroke-width:1.61422;stroke-linecap:round;stroke-linejoin:round;stroke-miterlimit:4;stroke-dasharray:none;stroke-dashoffset:0;stroke-opacity:1;stop-color:#000000;stop-opacity:1"
       d="m 470.35935,174.98627 -1.52338,2.60755 m 5.37485,3.80399 c -1.84523,-1.39427 0.44878,-4.70339 2.66866,-3.43683 1.80118,1.02768 1.26998,2.35042 0.91602,2.95629 -0.79622,1.36287 -2.59597,1.11106 -4.39714,0.0834 -1.80118,-1.02767 -2.67601,-2.86263 -2.12549,-3.80493 0.31365,-0.53687 0.72263,-1.03911 1.52203,-1.02405" />
    <path
       id="path1197"
       style="font-variation-settings:normal;opacity:1;vector-effect:none;fill:none;fill-opacity:1;stroke:#ffffff;stroke-width:1.61423;stroke-linecap:round;stroke-linejoin:round;stroke-miterlimit:4;stroke-dasharray:none;stroke-dashoffset:0;stroke-opacity:1;stop-color:#000000;stop-opacity:1"
       d="m 494.38409,106.9373 a 2.2831157,3.7838923 59.973867 0 1 -4.41769,-0.0848 2.2831157,3.7838923 59.973867 0 1 2.13541,-3.87011 2.2831157,3.7838923 59.973867 0 1 4.41768,0.0848 2.2831157,3.7838923 59.973867 0 1 -2.1354,3.87012 z m -3.05221,-10.191301 c 0.83876,-0.190676 1.706,0.214317 2.11028,0.985499 0.40429,0.771173 0.2437,1.714136 -0.39076,2.294532 -0.4027,0.36839 -0.94578,0.54183 -1.48973,0.47529 -1.8863,-0.2303 -3.7726,-0.4606 -5.6589,-0.690904 l 1.88613,3.268464" />
    <path
       id="path1193"
       style="font-variation-settings:normal;opacity:1;vector-effect:none;fill:none;fill-opacity:1;stroke:#ffffff;stroke-width:1.61423;stroke-linecap:round;stroke-linejoin:round;stroke-miterlimit:4;stroke-dasharray:none;stroke-dashoffset:0;stroke-opacity:1;stop-color:#000000;stop-opacity:1"
       d="m 394.4121,134.8668 a 2.2620611,3.7350318 0 0 1 2.26206,-3.73504 2.2620611,3.7350318 0 0 1 2.26206,3.73504 2.2620611,3.7350318 0 0 1 -2.26206,3.73503 2.2620611,3.7350318 0 0 1 -2.26206,-3.73503 z m 8.26554,2.49027 -1.25251,1.24738 v -7.47053" />
    <path
       id="path1203"
       style="fill:none;stroke:#ffffff;stroke-width:1.61422;stroke-linecap:round;stroke-linejoin:round;stroke-miterlimit:4;stroke-dasharray:none;stroke-opacity:1"
       d="m 456.78665,213.18693 0.45835,1.69711 -6.49609,-3.71994 m 7.82862,-1.05378 0.45836,1.69711 -6.4961,-3.71994" />
    <path
       id="path1210"
       style="fill:none;fill-opacity:1;stroke:#ffffff;stroke-width:1.61423;stroke-linecap:round;stroke-linejoin:round;stroke-miterlimit:4;stroke-dasharray:none;stroke-opacity:1"
       d="m 377.2066,231.0792 c -0.58236,-0.62598 -0.66512,-1.57172 -0.20137,-2.30129 0.46373,-0.72957 1.35707,-1.05906 2.17379,-0.80175 0.51839,0.16331 0.93856,0.54385 1.15218,1.04409 0.74116,1.73453 1.48233,3.46906 2.22349,5.2036 l 1.87943,-3.24044 m -9.17014,3.30098 -0.46076,-1.7122 6.53026,3.75306" />
    <path
       id="path1218"
       style="font-variation-settings:normal;opacity:1;vector-effect:none;fill:none;fill-opacity:1;stroke:#ffffff;stroke-width:1.61423;stroke-linecap:round;stroke-linejoin:round;stroke-miterlimit:4;stroke-dasharray:none;stroke-dashoffset:0;stroke-opacity:1;stop-color:#000000;stop-opacity:1"
       d="m 435.89754,197.87888 c -0.34825,-0.96565 -1.40045,-1.4918 -2.37891,-1.14849 -0.96809,0.33968 -1.49276,1.4148 -1.15776,2.37057 0.25926,0.7397 0.96131,1.25863 1.7717,1.26356 -0.80824,0.02 -1.54078,0.51255 -1.78032,1.28726 -0.30552,0.98812 0.20732,2.01649 1.17716,2.35119 0.96982,0.33469 2.00481,-0.16562 2.35952,-1.12695 m 3.75307,-0.019 -1.24688,1.24759 v -7.47186" />
    <path
       id="path1223"
       style="fill:none;stroke:#ffffff;stroke-width:1.61422;stroke-linecap:round;stroke-linejoin:round;stroke-miterlimit:4;stroke-dasharray:none;stroke-opacity:1"
       d="m 469.71926,240.66876 1.25016,-1.24736 v 7.47044 m 5.9287,-3.10944 v 3.10782 m -0.61373,-7.46671 -3.12229,5.91281 h 4.42846" />
    <path
       id="path1228"
       style="fill:none;stroke:#ffffff;stroke-width:1.61422;stroke-linecap:round;stroke-linejoin:round;stroke-miterlimit:4;stroke-dasharray:none;stroke-opacity:1"
       d="m 397.782,183.55461 -1.72062,-0.45986 6.53265,-3.7611 m -2.24432,-1.77892 c 0.34985,-0.68191 0.39346,-1.42226 0.0466,-2.0213 -0.62823,-1.08508 -2.02594,-1.15269 -2.94708,-0.62234 v 0 c -1.25268,0.72121 -1.27166,2.11536 -0.86528,2.81726 0.35455,0.61238 0.96681,0.9691 1.48638,1.15039 l -3.3389,1.92233 -1.87813,-3.24393" />
    <path
       id="path1233"
       style="fill:none;stroke:#ffffff;stroke-width:1.61422;stroke-linecap:round;stroke-linejoin:round;stroke-miterlimit:4;stroke-dasharray:none;stroke-opacity:1"
       d="m 477.18334,137.72921 -1.25083,1.24738 v -7.47054 m -2.40692,2.83573 c -0.29755,2.28461 -4.32193,1.97476 -4.32193,-0.56757 0,-2.0628 1.41684,-2.27031 2.12081,-2.27031 1.58358,0 2.25901,1.67223 2.25901,3.73504 0,2.0628 -1.16411,3.73503 -2.25901,3.73503 -0.62382,0 -1.26483,-0.0993 -1.64921,-0.79345" />
    <path
       id="path1239"
       style="fill:none;stroke:#ffffff;stroke-width:1.61422;stroke-linecap:round;stroke-linejoin:round;stroke-miterlimit:4;stroke-dasharray:none;stroke-opacity:1"
       d="m 413.6408,142.98449 1.24623,-1.24739 v 7.47059 m 2.42122,-6.2251 v -1.24717 h 3.6214 l -2.37553,7.47442" />
    <path
       id="path1244"
       style="fill:none;stroke:#ffffff;stroke-width:1.61422;stroke-linecap:round;stroke-linejoin:round;stroke-miterlimit:4;stroke-dasharray:none;stroke-opacity:1"
       d="m 417.6528,227.8079 1.71621,0.46044 -6.5159,3.76571 m 5.26828,4.74282 c -1.05144,0.60765 -2.3959,0.24704 -3.00295,-0.80544 -0.60704,-1.05248 -0.24679,-2.39828 0.80464,-3.00593 1.05144,-0.60765 2.37994,-0.23783 2.98699,0.81465 0.60704,1.05248 0.26275,2.38907 -0.78868,2.99672 z m 2.94069,-2.41939 c -0.75355,0.4355 -1.71711,0.17707 -2.15218,-0.57723 -0.43506,-0.75431 -0.17687,-1.71884 0.57668,-2.15434 0.75354,-0.43549 1.71711,-0.17704 2.15218,0.57726 0.43505,0.7543 0.17686,1.71882 -0.57668,2.15431 z" />
    <path
       id="path1249"
       style="fill:none;stroke:#ffffff;stroke-width:1.61422;stroke-linecap:round;stroke-linejoin:round;stroke-miterlimit:4;stroke-dasharray:none;stroke-opacity:1"
       d="m 455.08562,162.0409 1.71713,0.45986 -6.51938,3.76103 m 7.42391,3.52463 c -2.14327,0.89139 -3.89518,-2.76464 -1.67655,-4.04456 1.80016,-1.03852 2.69323,0.0892 3.04699,0.70149 0.79578,1.37725 -0.32412,2.80656 -2.12428,3.84507 -1.80018,1.03852 -3.84447,0.86797 -4.39468,-0.0843 -0.31348,-0.54254 -0.54898,-1.15002 -0.13633,-1.83379" />
  </g>
</svg>
