<?xml version="1.0" encoding="UTF-8" standalone="no"?>
<svg
   xmlns:dc="http://purl.org/dc/elements/1.1/"
   xmlns:cc="http://creativecommons.org/ns#"
   xmlns:rdf="http://www.w3.org/1999/02/22-rdf-syntax-ns#"
   xmlns:svg="http://www.w3.org/2000/svg"
   xmlns="http://www.w3.org/2000/svg"
   width="504"
   height="435.99997"
   viewBox="0 0 133.35 115.35833"
   version="1.1"
   id="svg8">
  <defs
     id="defs2" />
  <metadata
     id="metadata5">
    <rdf:RDF>
      <cc:Work
         rdf:about="">
        <dc:format>image/svg+xml</dc:format>
        <dc:type
           rdf:resource="http://purl.org/dc/dcmitype/StillImage" />
        <dc:title></dc:title>
      </cc:Work>
    </rdf:RDF>
  </metadata>
  <g
     id="layer1">
    <path
       style="fill:none;stroke:#ffffff;stroke-width:1.61422;stroke-linecap:round;stroke-linejoin:round;stroke-miterlimit:4;stroke-dasharray:none;stroke-opacity:1"
       d="M 48.977019,50.273542 46.763016,49.648727 55.263,44.889667"
       id="path948" />
    <path
       id="path950"
       style="font-variation-settings:normal;opacity:1;vector-effect:none;fill:none;fill-opacity:1;stroke:#ffffff;stroke-width:1.61423;stroke-linecap:round;stroke-linejoin:round;stroke-miterlimit:4;stroke-dasharray:none;stroke-dashoffset:0;stroke-opacity:1;stop-color:#000000;stop-opacity:1"
       d="m 67.536492,20.772141 v 4.05264 m -0.79863,-9.73671 -4.06294,7.7104 h 5.76263" />
    <path
       style="fill:none;fill-opacity:1;stroke:#ffffff;stroke-width:1.61423;stroke-linecap:round;stroke-linejoin:round;stroke-miterlimit:4;stroke-dasharray:none;stroke-opacity:1"
       d="m 85.563308,46.36543 c 0.765023,0.800496 0.891231,2.02605 0.307085,2.982205 -0.584129,0.956161 -1.731381,1.401867 -2.791618,1.084573 -0.672953,-0.2014 -1.223473,-0.68667 -1.509628,-1.331481 -0.992788,-2.235769 -1.985573,-4.47155 -2.97836,-6.707319 l -2.361617,4.243157"
       id="path952" />
    <path
       style="fill:none;fill-opacity:1;stroke:#ffffff;stroke-width:1.61423;stroke-linecap:round;stroke-linejoin:round;stroke-miterlimit:4;stroke-dasharray:none;stroke-opacity:1"
       d="m 102.4234,39.313999 c -0.31688,1.060967 -1.31929,1.777263 -2.439238,1.742979 -1.119946,-0.03426 -2.075094,-0.81049 -2.324199,-1.888783 -0.158107,-0.684421 -0.009,-1.40297 0.409676,-1.970783 1.451243,-1.969312 2.902491,-3.938626 4.353741,-5.907937 l -4.855851,0.0483"
       id="path954" />
    <path
       style="fill:none;fill-opacity:1;stroke:#ffffff;stroke-width:1.61423;stroke-linecap:round;stroke-linejoin:round;stroke-miterlimit:4;stroke-dasharray:none;stroke-opacity:1"
       d="m 83.08054,64.63137 c 1.074996,-0.265398 2.200916,0.234815 2.739747,1.217223 0.538844,0.982396 0.354737,2.199336 -0.447962,2.96121 -0.509495,0.483573 -1.204329,0.719717 -1.906042,0.647162 -2.433365,-0.251052 -4.866738,-0.502116 -7.300103,-0.753172 l 2.505938,4.159555"
       id="path956" />
    <path
       style="fill:none;stroke:#ffffff;stroke-width:1.61422;stroke-linecap:round;stroke-linejoin:round;stroke-miterlimit:4;stroke-dasharray:none;stroke-opacity:1"
       d="M 47.641674,67.565005 47.046313,65.3429 55.482978,70.213327"
       id="path958" />
    <path
       style="fill:none;stroke:#ffffff;stroke-width:1.61422;stroke-linecap:round;stroke-linejoin:round;stroke-miterlimit:4;stroke-dasharray:none;stroke-opacity:1"
       d="m 34.791699,40.117228 -1.628139,1.625228 0.0081,-9.741577"
       id="path960" />
    <path
       id="path962"
       style="font-variation-settings:normal;opacity:1;vector-effect:none;fill:none;fill-opacity:1;stroke:#ffffff;stroke-width:1.61423;stroke-linecap:round;stroke-linejoin:round;stroke-miterlimit:4;stroke-dasharray:none;stroke-dashoffset:0;stroke-opacity:1;stop-color:#000000;stop-opacity:1"
       d="m 48.801515,11.254796 -3.509689,2.02632 m 8.032923,-5.5599891 -8.708872,0.336591 2.881315,4.9905841" />
    <path
       id="path964"
       style="font-variation-settings:normal;opacity:1;vector-effect:none;fill:none;fill-opacity:1;stroke:#ffffff;stroke-width:1.61423;stroke-linecap:round;stroke-linejoin:round;stroke-miterlimit:4;stroke-dasharray:none;stroke-dashoffset:0;stroke-opacity:1;stop-color:#000000;stop-opacity:1"
       d="m 85.226684,9.6958262 3.509689,2.0263198 m -8.831554,-4.1767209 4.645933,7.3738089 2.881315,-4.9905838" />
    <path
       id="path966"
       style="font-variation-settings:normal;opacity:1;vector-effect:none;fill:none;fill-opacity:1;stroke:#ffffff;stroke-width:1.61423;stroke-linecap:round;stroke-linejoin:round;stroke-miterlimit:4;stroke-dasharray:none;stroke-dashoffset:0;stroke-opacity:1;stop-color:#000000;stop-opacity:1"
       d="m 69.151809,90.104738 c -0.45436,-1.25898 -1.82715,-1.94496 -3.10372,-1.49736 -1.26306,0.44286 -1.94759,1.84457 -1.51052,3.09067 0.33826,0.96441 1.25421,1.64097 2.31151,1.6474 -1.05449,0.0261 -2.01023,0.66824 -2.32275,1.67829 -0.39861,1.28827 0.27048,2.62903 1.53582,3.0654 1.26531,0.43636 2.61564,-0.21592 3.07843,-1.46928" />
    <path
       id="path968"
       style="font-variation-settings:normal;opacity:1;vector-effect:none;fill:none;fill-opacity:1;stroke:#ffffff;stroke-width:1.61423;stroke-linecap:round;stroke-linejoin:round;stroke-miterlimit:4;stroke-dasharray:none;stroke-dashoffset:0;stroke-opacity:1;stop-color:#000000;stop-opacity:1"
       d="m 110.15762,10.59311 c -0.86313,1.022978 -0.77081,2.554839 0.25511,3.436581 1.01506,0.872412 2.57124,0.764377 3.43186,-0.237186 0.66607,-0.775147 0.79402,-1.906663 0.27094,-2.825527 0.54984,0.900165 1.58382,1.40679 2.61481,1.172416 1.31498,-0.298929 2.14157,-1.548758 1.88681,-2.8627596 -0.25476,-1.3139706 -1.49482,-2.1572507 -2.81165,-1.9313586" />
    <path
       id="path970"
       style="font-variation-settings:normal;opacity:1;vector-effect:none;fill:none;fill-opacity:1;stroke:#ffffff;stroke-width:1.61423;stroke-linecap:round;stroke-linejoin:round;stroke-miterlimit:4;stroke-dasharray:none;stroke-dashoffset:0;stroke-opacity:1;stop-color:#000000;stop-opacity:1"
       d="m 20.691615,14.837646 c 1.317489,0.236002 2.59796,-0.609879 2.848612,-1.939221 0.248002,-1.315272 -0.623649,-2.608947 -1.921339,-2.853483 -1.004333,-0.1892636 -2.048226,0.265692 -2.582445,1.178126 C 19.541085,10.296803 19.462845,9.1480378 18.744376,8.3723623 17.828006,7.3830209 16.332329,7.2920898 15.321752,8.1697214 14.311198,9.047332 14.200924,10.542892 15.05497,11.57036" />
  </g>
</svg>
