<?xml version="1.0" encoding="UTF-8" standalone="no"?>
<svg
   xmlns:dc="http://purl.org/dc/elements/1.1/"
   xmlns:cc="http://creativecommons.org/ns#"
   xmlns:rdf="http://www.w3.org/1999/02/22-rdf-syntax-ns#"
   xmlns:svg="http://www.w3.org/2000/svg"
   xmlns="http://www.w3.org/2000/svg"
   width="671"
   height="503"
   viewBox="0 0 177.53542 133.08542"
   version="1.1"
   id="svg8">
  <defs
     id="defs2" />
  <metadata
     id="metadata5">
    <rdf:RDF>
      <cc:Work
         rdf:about="">
        <dc:format>image/svg+xml</dc:format>
        <dc:type
           rdf:resource="http://purl.org/dc/dcmitype/StillImage" />
        <dc:title></dc:title>
      </cc:Work>
    </rdf:RDF>
  </metadata>
  <g
     id="layer1"
     transform="translate(-250.56036)">
    <path
       style="fill:none;stroke:#ffffff;stroke-width:1.61422;stroke-linecap:round;stroke-linejoin:round;stroke-miterlimit:4;stroke-dasharray:none;stroke-opacity:1"
       d="m 314.74214,61.225565 3.2473,-2.574626 v 15.419423"
       id="path982" />
    <path
       style="fill:none;fill-opacity:1;stroke:#ffffff;stroke-width:1.61423;stroke-linecap:round;stroke-linejoin:round;stroke-miterlimit:4;stroke-dasharray:none;stroke-opacity:1"
       d="m 313.1773,105.8431 c 0.54506,-1.67424 2.22561,-2.79218 4.08939,-2.72028 1.86378,0.0719 3.44094,1.31547 3.83776,3.02605 0.25186,1.08576 -0.008,2.22069 -0.71461,3.1128 -2.44846,3.09408 -4.89693,6.18815 -7.34539,9.28222 h 8.08421"
       id="path984" />
    <path
       id="path986"
       style="font-variation-settings:normal;opacity:1;vector-effect:none;fill:none;fill-opacity:1;stroke:#ffffff;stroke-width:1.61423;stroke-linecap:round;stroke-linejoin:round;stroke-miterlimit:4;stroke-dasharray:none;stroke-dashoffset:0;stroke-opacity:1;stop-color:#000000;stop-opacity:1"
       d="m 267.65988,62.532703 c -1.99228,0.75883 -3.07781,3.051539 -2.3695,5.183549 0.7008,2.109448 2.91895,3.252687 4.89085,2.522733 1.52613,-0.564931 2.59676,-2.094667 2.60693,-3.860473 0.0413,1.761113 1.05746,3.357303 2.65582,3.879245 2.03864,0.665722 4.16033,-0.451731 4.85087,-2.564986 0.69052,-2.113206 -0.34169,-4.368403 -2.32507,-5.141313" />
    <path
       id="path988"
       style="font-variation-settings:normal;opacity:1;vector-effect:none;fill:none;fill-opacity:1;stroke:#ffffff;stroke-width:1.61423;stroke-linecap:round;stroke-linejoin:round;stroke-miterlimit:4;stroke-dasharray:none;stroke-dashoffset:0;stroke-opacity:1;stop-color:#000000;stop-opacity:1"
       d="m 362.94527,63.639538 h 6.4149 m -15.41218,1.309798 12.20475,6.663447 V 62.16175" />
    <path
       id="path990"
       style="font-variation-settings:normal;opacity:1;vector-effect:none;fill:none;fill-opacity:1;stroke:#ffffff;stroke-width:1.61423;stroke-linecap:round;stroke-linejoin:round;stroke-miterlimit:4;stroke-dasharray:none;stroke-dashoffset:0;stroke-opacity:1;stop-color:#000000;stop-opacity:1"
       d="m 321.4102,16.463228 c -0.89799,-1.318212 -2.23472,-2.154189 -3.72745,-2.154189 -2.70392,0 -4.33421,2.404969 -4.33421,4.57918 v 0 c 0,2.95669 2.58513,4.419159 4.33421,4.419159 1.52598,0 2.85145,-0.718232 3.74933,-1.452197 v 7.880843 h -8.08354" />
    <path
       id="path992"
       style="font-variation-settings:normal;opacity:1;vector-effect:none;fill:none;fill-opacity:1;stroke:#ffffff;stroke-width:1.61423;stroke-linecap:round;stroke-linejoin:round;stroke-miterlimit:4;stroke-dasharray:none;stroke-dashoffset:0;stroke-opacity:1;stop-color:#000000;stop-opacity:1"
       d="m 410.75003,64.512008 c -0.63532,4.715539 -9.22794,4.075985 -9.22794,-1.171489 0,-4.257729 3.02517,-4.686035 4.52823,-4.686035 3.38118,0 4.82331,3.451564 4.82331,7.709293 0,4.257714 -2.48554,7.709278 -4.82331,7.709278 -1.33193,0 -2.70058,-0.204886 -3.52128,-1.63772" />
  </g>
</svg>
