<?xml version="1.0" encoding="UTF-8" standalone="no"?>
<svg
   xmlns:dc="http://purl.org/dc/elements/1.1/"
   xmlns:cc="http://creativecommons.org/ns#"
   xmlns:rdf="http://www.w3.org/1999/02/22-rdf-syntax-ns#"
   xmlns:svg="http://www.w3.org/2000/svg"
   xmlns="http://www.w3.org/2000/svg"
   width="488"
   height="508"
   viewBox="0 0 129.11667 134.40834"
   version="1.1"
   id="svg8">
  <defs
     id="defs2" />
  <metadata
     id="metadata5">
    <rdf:RDF>
      <cc:Work
         rdf:about="">
        <dc:format>image/svg+xml</dc:format>
        <dc:type
           rdf:resource="http://purl.org/dc/dcmitype/StillImage" />
        <dc:title></dc:title>
      </cc:Work>
    </rdf:RDF>
  </metadata>
  <g
     id="layer1"
     transform="translate(0,-120.64999)">
    <path
       style="fill:none;stroke:#ffffff;stroke-width:1.61422;stroke-linecap:round;stroke-linejoin:round;stroke-miterlimit:4;stroke-dasharray:none;stroke-opacity:1"
       d="m 49.391192,188.51349 3.247295,-2.57462 v 15.41942"
       id="path994" />
    <path
       style="fill:none;fill-opacity:1;stroke:#ffffff;stroke-width:1.61423;stroke-linecap:round;stroke-linejoin:round;stroke-miterlimit:4;stroke-dasharray:none;stroke-opacity:1"
       d="m 106.96876,128.92308 c 1.70679,-0.39212 3.47152,0.44076 4.29418,2.02671 0.82268,1.58592 0.4959,3.52515 -0.79514,4.71877 -0.81946,0.75759 -1.92457,1.11427 -3.03143,0.97744 -3.8384,-0.47361 -7.67681,-0.94725 -11.515209,-1.42086 l 3.838051,6.72168"
       id="path996" />
    <path
       id="path998"
       style="font-variation-settings:normal;opacity:1;vector-effect:none;fill:none;fill-opacity:1;stroke:#ffffff;stroke-width:1.61422;stroke-linecap:round;stroke-linejoin:round;stroke-miterlimit:4;stroke-dasharray:none;stroke-dashoffset:0;stroke-opacity:1;stop-color:#000000;stop-opacity:1"
       d="m 82.836588,241.15201 c 1.370969,-1.64734 1.224332,-4.11415 -0.405207,-5.53405 -1.612289,-1.40489 -4.084081,-1.23091 -5.451064,0.38194 -1.057971,1.24825 -1.261192,3.07037 -0.430344,4.55006 -0.873363,-1.44958 -2.515707,-2.26541 -4.153299,-1.888 -2.088674,0.48138 -3.401602,2.49403 -2.996944,4.61001 0.404648,2.11594 2.374317,3.47391 4.465942,3.11015" />
    <path
       id="path1000"
       style="font-variation-settings:normal;opacity:1;vector-effect:none;fill:none;fill-opacity:1;stroke:#ffffff;stroke-width:1.61423;stroke-linecap:round;stroke-linejoin:round;stroke-miterlimit:4;stroke-dasharray:none;stroke-dashoffset:0;stroke-opacity:1;stop-color:#000000;stop-opacity:1"
       d="m 27.018868,181.78544 -5.589791,3.33363 m 12.793829,-9.1471 -13.870395,0.55375 4.588996,8.21034" />
    <path
       id="path1002"
       style="font-variation-settings:normal;opacity:1;vector-effect:none;fill:none;fill-opacity:1;stroke:#ffffff;stroke-width:1.61423;stroke-linecap:round;stroke-linejoin:round;stroke-miterlimit:4;stroke-dasharray:none;stroke-dashoffset:0;stroke-opacity:1;stop-color:#000000;stop-opacity:1"
       d="m 84.118088,150.98188 c 0.713929,-1.41333 0.802916,-2.94774 0.09517,-4.1893 -1.282014,-2.24894 -4.134271,-2.38906 -6.014049,-1.28987 v 0 c -2.556292,1.49477 -2.595025,4.38426 -1.76573,5.83904 0.723511,1.2692 1.972929,2.00853 3.033212,2.38427 l -6.813614,3.98421 -3.832656,-6.72335" />
    <path
       id="path1004"
       style="font-variation-settings:normal;opacity:1;vector-effect:none;fill:none;fill-opacity:1;stroke:#ffffff;stroke-width:1.61423;stroke-linecap:round;stroke-linejoin:round;stroke-miterlimit:4;stroke-dasharray:none;stroke-dashoffset:0;stroke-opacity:1;stop-color:#000000;stop-opacity:1"
       d="m 56.459108,224.56039 c -0.635318,4.71554 -9.227932,4.07598 -9.227932,-1.17149 0,-4.25773 3.025162,-4.68604 4.528229,-4.68604 3.381179,0 4.823306,3.45157 4.823306,7.7093 0,4.25771 -2.485537,7.70927 -4.823306,7.70927 -1.331937,0 -2.700583,-0.20488 -3.521281,-1.63771" />
    <path
       style="font-variation-settings:normal;opacity:1;vector-effect:none;fill:none;fill-opacity:1;stroke:#ffffff;stroke-width:1.61423;stroke-linecap:round;stroke-linejoin:round;stroke-miterlimit:4;stroke-dasharray:none;stroke-dashoffset:0;stroke-opacity:1;stop-color:#000000;stop-opacity:1"
       d="m 31.949055,239.37941 2.235464,1.30655 -3.751586,6.57801 -10.936434,-12.14526"
       id="path1006" />
    <path
       id="path1008"
       style="font-variation-settings:normal;opacity:1;vector-effect:none;fill:none;fill-opacity:1;stroke:#ffffff;stroke-width:1.61422;stroke-linecap:round;stroke-linejoin:round;stroke-miterlimit:4;stroke-dasharray:none;stroke-dashoffset:0;stroke-opacity:1;stop-color:#000000;stop-opacity:1"
       d="m 81.538557,177.24664 c 2.162232,1.26525 2.903063,4.06745 1.654706,6.25889 -1.248357,2.19145 -4.013175,2.94229 -6.175406,1.67706 -2.162218,-1.26523 -2.870242,-4.04824 -1.621886,-6.23969 1.248357,-2.19144 3.980369,-2.96149 6.142586,-1.69626 z m -7.328179,-2.78922 c 1.549649,0.90679 2.080606,2.91509 1.185924,4.48567 -0.89469,1.57061 -2.876217,2.10874 -4.425867,1.20195 -1.549619,-0.90677 -2.080569,-2.91509 -1.185879,-4.4857 0.894682,-1.57057 2.876203,-2.10869 4.425822,-1.20192 z" />
  </g>
</svg>
